<mxfile host="65bd71144e">
    <diagram id="kvn6oxyVtjYTXbkVJW3u" name="Page-1">
        <mxGraphModel dx="889" dy="758" grid="1" gridSize="10" guides="1" tooltips="1" connect="1" arrows="1" fold="1" page="1" pageScale="1" pageWidth="827" pageHeight="1169" math="0" shadow="0">
            <root>
                <mxCell id="0"/>
                <mxCell id="1" parent="0"/>
                <mxCell id="82" style="edgeStyle=orthogonalEdgeStyle;rounded=0;orthogonalLoop=1;jettySize=auto;html=1;fontSize=10;exitX=0.981;exitY=0.697;exitDx=0;exitDy=0;exitPerimeter=0;" edge="1" parent="1" source="94" target="74">
                    <mxGeometry relative="1" as="geometry"/>
                </mxCell>
                <mxCell id="83" style="edgeStyle=orthogonalEdgeStyle;rounded=0;orthogonalLoop=1;jettySize=auto;html=1;fontSize=10;exitX=0.981;exitY=0.6;exitDx=0;exitDy=0;exitPerimeter=0;" edge="1" parent="1" source="92" target="75">
                    <mxGeometry relative="1" as="geometry"/>
                </mxCell>
                <mxCell id="60" value="Main unit" style="verticalAlign=top;align=left;spacingTop=8;spacingLeft=2;spacingRight=12;shape=cube;size=10;direction=south;fontStyle=4;html=1;fontSize=10;" vertex="1" parent="1">
                    <mxGeometry x="110" y="70" width="420" height="270" as="geometry"/>
                </mxCell>
                <mxCell id="87" style="edgeStyle=orthogonalEdgeStyle;rounded=0;orthogonalLoop=1;jettySize=auto;html=1;fontSize=10;entryX=0.99;entryY=0.152;entryDx=0;entryDy=0;entryPerimeter=0;" edge="1" parent="1" source="66" target="85">
                    <mxGeometry relative="1" as="geometry"/>
                </mxCell>
                <mxCell id="66" value="Electrical Power" style="verticalAlign=top;align=left;spacingTop=8;spacingLeft=2;spacingRight=12;shape=cube;size=10;direction=south;fontStyle=4;html=1;fontSize=10;" vertex="1" parent="1">
                    <mxGeometry x="410" y="95" width="100" height="50" as="geometry"/>
                </mxCell>
                <mxCell id="91" style="edgeStyle=orthogonalEdgeStyle;rounded=0;orthogonalLoop=1;jettySize=auto;html=1;entryX=1;entryY=0.75;entryDx=0;entryDy=0;fontSize=10;" edge="1" parent="1" source="67" target="85">
                    <mxGeometry relative="1" as="geometry">
                        <Array as="points">
                            <mxPoint x="420" y="240"/>
                            <mxPoint x="370" y="240"/>
                            <mxPoint x="370" y="216"/>
                        </Array>
                    </mxGeometry>
                </mxCell>
                <mxCell id="67" value="Display" style="verticalAlign=top;align=left;spacingTop=8;spacingLeft=2;spacingRight=12;shape=cube;size=10;direction=south;fontStyle=4;html=1;fontSize=10;" vertex="1" parent="1">
                    <mxGeometry x="370" y="250" width="130" height="60" as="geometry"/>
                </mxCell>
                <mxCell id="70" value="" style="group" vertex="1" connectable="0" parent="1">
                    <mxGeometry x="130" y="110" width="130" height="100" as="geometry"/>
                </mxCell>
                <mxCell id="63" value="Control unit" style="verticalAlign=top;align=left;spacingTop=8;spacingLeft=2;spacingRight=12;shape=cube;size=10;direction=south;fontStyle=4;html=1;fontSize=10;" vertex="1" parent="70">
                    <mxGeometry width="130" height="100" as="geometry"/>
                </mxCell>
                <mxCell id="61" value="Hardware" style="html=1;fontSize=10;" vertex="1" parent="70">
                    <mxGeometry x="20" y="30" width="86" height="25" as="geometry"/>
                </mxCell>
                <mxCell id="65" value="Software" style="html=1;fontSize=10;" vertex="1" parent="70">
                    <mxGeometry x="20" y="60" width="86" height="25" as="geometry"/>
                </mxCell>
                <mxCell id="88" style="edgeStyle=orthogonalEdgeStyle;rounded=0;orthogonalLoop=1;jettySize=auto;html=1;entryX=0;entryY=0.75;entryDx=0;entryDy=0;fontSize=10;exitX=0.812;exitY=-0.014;exitDx=0;exitDy=0;exitPerimeter=0;" edge="1" parent="1" source="73" target="85">
                    <mxGeometry relative="1" as="geometry"/>
                </mxCell>
                <mxCell id="73" value="Power switch" style="html=1;fontSize=10;" vertex="1" parent="1">
                    <mxGeometry x="120" y="260" width="70" height="40" as="geometry"/>
                </mxCell>
                <mxCell id="74" value="Light Source" style="verticalAlign=top;align=left;spacingTop=8;spacingLeft=2;spacingRight=12;shape=cube;size=10;direction=south;fontStyle=4;html=1;fontSize=10;" vertex="1" parent="1">
                    <mxGeometry x="600" y="210" width="90" height="60" as="geometry"/>
                </mxCell>
                <mxCell id="75" value="Light sensor" style="verticalAlign=top;align=left;spacingTop=8;spacingLeft=2;spacingRight=12;shape=cube;size=10;direction=south;fontStyle=4;html=1;fontSize=10;" vertex="1" parent="1">
                    <mxGeometry x="600" y="120" width="90" height="60" as="geometry"/>
                </mxCell>
                <mxCell id="89" style="edgeStyle=orthogonalEdgeStyle;rounded=0;orthogonalLoop=1;jettySize=auto;html=1;entryX=0.01;entryY=0.88;entryDx=0;entryDy=0;entryPerimeter=0;fontSize=10;exitX=0.75;exitY=0;exitDx=0;exitDy=0;" edge="1" parent="1" source="76" target="85">
                    <mxGeometry relative="1" as="geometry"/>
                </mxCell>
                <mxCell id="76" value="Reset button" style="html=1;fontSize=10;" vertex="1" parent="1">
                    <mxGeometry x="205" y="260" width="70" height="40" as="geometry"/>
                </mxCell>
                <mxCell id="90" style="edgeStyle=orthogonalEdgeStyle;rounded=0;orthogonalLoop=1;jettySize=auto;html=1;fontSize=10;" edge="1" parent="1" source="77" target="85">
                    <mxGeometry relative="1" as="geometry"/>
                </mxCell>
                <mxCell id="77" value="Control led" style="html=1;fontSize=10;" vertex="1" parent="1">
                    <mxGeometry x="285" y="260" width="70" height="40" as="geometry"/>
                </mxCell>
                <mxCell id="85" value="Mother&lt;br&gt;&amp;nbsp;board" style="html=1;fontSize=10;" vertex="1" parent="1">
                    <mxGeometry x="290" y="145" width="60" height="95" as="geometry"/>
                </mxCell>
                <mxCell id="86" style="edgeStyle=orthogonalEdgeStyle;rounded=0;orthogonalLoop=1;jettySize=auto;html=1;fontSize=10;" edge="1" parent="1" source="63" target="85">
                    <mxGeometry relative="1" as="geometry"/>
                </mxCell>
                <mxCell id="95" style="edgeStyle=orthogonalEdgeStyle;rounded=0;orthogonalLoop=1;jettySize=auto;html=1;entryX=1;entryY=0.25;entryDx=0;entryDy=0;fontSize=10;" edge="1" parent="1" source="92" target="85">
                    <mxGeometry relative="1" as="geometry"/>
                </mxCell>
                <mxCell id="92" value="" style="shape=umlBoundary;whiteSpace=wrap;html=1;fontSize=10;" vertex="1" parent="1">
                    <mxGeometry x="520" y="165" width="30" height="25" as="geometry"/>
                </mxCell>
                <mxCell id="96" style="edgeStyle=orthogonalEdgeStyle;rounded=0;orthogonalLoop=1;jettySize=auto;html=1;entryX=1;entryY=0.5;entryDx=0;entryDy=0;fontSize=10;" edge="1" parent="1" source="94" target="85">
                    <mxGeometry relative="1" as="geometry"/>
                </mxCell>
                <mxCell id="94" value="" style="shape=umlBoundary;whiteSpace=wrap;html=1;fontSize=10;" vertex="1" parent="1">
                    <mxGeometry x="520" y="210" width="30" height="25" as="geometry"/>
                </mxCell>
            </root>
        </mxGraphModel>
    </diagram>
</mxfile>